<svg width="23" height="26" viewBox="0 0 23 26" fill="none" xmlns="http://www.w3.org/2000/svg">
<path fill-rule="evenodd" clip-rule="evenodd" d="M19.4246 3.05882H9.79238V0H19.4246C20.3728 0 21.2823 0.436207 21.9528 1.21266C22.6233 1.98911 23 3.04221 23 4.14028V21.8597C23 22.9578 22.6233 24.0109 21.9528 24.7873C21.2823 25.5638 20.3728 26 19.4246 26H9.79238V22.9412H19.4246C19.6722 22.9412 19.9098 22.8272 20.0849 22.6244C20.2601 22.4216 20.3585 22.1465 20.3585 21.8597V4.14028C20.3585 3.85346 20.2601 3.57839 20.0849 3.37558C19.9098 3.17276 19.6722 3.05882 19.4246 3.05882Z" fill="#292929"/>
<path fill-rule="evenodd" clip-rule="evenodd" d="M5.05644 13.7647L7.42443 16.5068L5.55659 18.6697L0 12.2353L5.55659 5.80089L7.42443 7.96381L5.05644 10.7059H15.7358V13.7647H5.05644Z" fill="#292929"/>
</svg>
